<?xml version="1.0" encoding="utf-8"?>
<!-- Generator: Adobe Illustrator 21.0.0, SVG Export Plug-In . SVG Version: 6.00 Build 0)  -->
<svg version="1.1" id="Capa_1" xmlns="http://www.w3.org/2000/svg" xmlns:xlink="http://www.w3.org/1999/xlink" x="0px" y="0px"
	 viewBox="0 0 187.4 187.4" style="enable-background:new 0 0 187.4 187.4;" xml:space="preserve">
<style type="text/css">
	.st0{clip-path:url(#SVGID_2_);fill:#EE9A9B;}
	.st1{clip-path:url(#SVGID_4_);fill:#6BB9BF;}
	.st2{clip-path:url(#SVGID_6_);fill:#6BB9BF;}
	.st3{clip-path:url(#SVGID_8_);}
	.st4{fill:#562307;}
	.st5{fill:#FFB37F;}
	.st6{fill:#FFC695;}
	.st7{fill:#EE9A9B;}
	.st8{fill:#A54242;}
	.st9{fill:#3281A0;}
	.st10{fill:#4198C4;}
	.st11{fill:#333331;}
	.st12{fill:#F29555;}
	.st13{fill:#74320A;}
</style>
<g>
	<g>
		<defs>
			<circle id="SVGID_1_" cx="93.7" cy="93.7" r="93.7"/>
		</defs>
		<clipPath id="SVGID_2_">
			<use xlink:href="#SVGID_1_"  style="overflow:visible;"/>
		</clipPath>
		<circle class="st0" cx="93.7" cy="93.7" r="93.7"/>
	</g>
	<g>
		<defs>
			<circle id="SVGID_3_" cx="93.7" cy="93.7" r="93.7"/>
		</defs>
		<clipPath id="SVGID_4_">
			<use xlink:href="#SVGID_3_"  style="overflow:visible;"/>
		</clipPath>
		<polygon class="st1" points="59.7,196.3 62.6,171 47.5,194.6 48.9,195.7 48.4,196.3 		"/>
	</g>
	<g>
		<defs>
			<circle id="SVGID_5_" cx="93.7" cy="93.7" r="93.7"/>
		</defs>
		<clipPath id="SVGID_6_">
			<use xlink:href="#SVGID_5_"  style="overflow:visible;"/>
		</clipPath>
		<path class="st2" d="M146.4,195.7l1.2-0.9l-1.7-3L133,171.6l1.9,16.7c0.3,2.5,0.5,5.2,0.7,8.1h11.2L146.4,195.7z"/>
	</g>
	<g>
		<defs>
			<circle id="SVGID_7_" cx="93.7" cy="93.7" r="93.7"/>
		</defs>
		<clipPath id="SVGID_8_">
			<use xlink:href="#SVGID_7_"  style="overflow:visible;"/>
		</clipPath>
		<g class="st3">
			<path class="st4" d="M41.5,180.1l109.3-1.1c0,0,46.3-155.6-58-155.6C-9,23.4,41.5,180.1,41.5,180.1z"/>
			<g>
				<g>
					<path class="st5" d="M56.1,189.6c1.8-3.4,4-6.7,6.3-9.8c8.2-10.8,17.1-16.5,17.2-16.6c3.4-2.1,4.5-6.7,2.3-10.1
						c-2.1-3.4-6.7-4.5-10.1-2.3c-0.4,0.3-10.9,6.9-20.7,19.7c-4.5,5.8-8.2,12.3-11.2,19.2L56.1,189.6L56.1,189.6z"/>
					<path class="st6" d="M113.2,163.2c0.2,0.1,9,5.8,17.2,16.6c2.4,3.1,4.5,6.4,6.3,9.8h16.1c-2.8-6.8-6.5-13.2-11-19.1
						c-9.8-12.8-20.3-19.4-20.7-19.7c-3.4-2.1-8-1.1-10.1,2.3C108.8,156.5,109.8,161,113.2,163.2z"/>
				</g>
				<path class="st7" d="M133.3,189.6c-1.9-24.6-7.1-32.1-11.5-36.9c-4.2-4.5-18.3-11.4-25.7-9.4c-7.4-2-21.6,4.8-25.7,9.4
					c-4.4,4.9-7.9,12.3-8.8,36.9L133.3,189.6L133.3,189.6z"/>
				<path class="st8" d="M133.1,189.6c-0.3-5.2-0.7-9.6-1.3-13.4c0,0-5.6-6.7-35.9-6.2c-26.1,0.5-33.4,6.2-33.4,6.2
					c-0.4,3.8-0.7,8.2-0.9,13.4H133.1z"/>
				<g>
					<path class="st9" d="M57.1,189.6l4.5-7l-0.8,7h15.5v-40.8c0,0-19.6,4.5-33.4,31.7l11.9,9.2H57.1z"/>
					<polygon class="st10" points="59.1,189.6 59.4,189.1 41.7,176.2 36.4,183.5 44.8,189.6 					"/>
					<polygon class="st10" points="80.2,189.6 80.2,145.1 72.8,147.6 72.8,189.6 					"/>
				</g>
				<g>
					<path class="st9" d="M133.3,189.6l-0.8-7l4.5,7h2.3l11.9-9.2c-13.7-27.2-33.4-31.7-33.4-31.7v40.8H133.3z"/>
					<polygon class="st10" points="149.2,189.6 157.6,183.5 152.3,176.2 134.6,189.1 135,189.6 					"/>
					<polygon class="st10" points="121.2,189.6 121.2,147.6 113.8,145.1 113.8,189.6 					"/>
				</g>
				<g>
					<g>
						<path class="st6" d="M96.9,46c-12.7,0.6-25.9,4.1-35.3,10.5c-13.9,9.5-19.1,29.4-17,44.6c5.4,40,43.7,48.8,52.3,49.5V46z"/>
						<path class="st6" d="M96.1,46c12.7,0.6,25,4.1,34.5,10.5c13.9,9.5,16.3,29.3,15.3,44.6c-1.3,20.7-23.7,48.7-49.8,49.5
							C96.1,150.6,96.1,46,96.1,46z"/>
					</g>
				</g>
				<g>
					<circle class="st11" cx="70.8" cy="102.1" r="5.5"/>
					<circle class="st11" cx="121.4" cy="102.1" r="5.5"/>
				</g>
				<path class="st12" d="M103.9,115.1c0,2.3-2,4.2-4.4,4.2h-6.9c-2.4,0-4.4-1.9-4.4-4.2l0,0c0-2.3,2-4.2,4.4-4.2h6.9
					C102,110.9,103.9,112.8,103.9,115.1L103.9,115.1z"/>
				<path class="st8" d="M107.5,124.7c-1.4-0.2-2.6,0.8-2.8,2.2c-0.1,0.7-1.1,5.9-8.6,6.2c-7.5-0.4-8.5-5.6-8.6-6.2
					c-0.2-1.4-1.4-2.3-2.8-2.2c-1.4,0.2-2.4,1.4-2.2,2.8c0.5,3.6,3.9,10.2,13.4,10.6v0c0.1,0,0.1,0,0.1,0c0,0,0.1,0,0.1,0v0
					c9.5-0.4,13-6.9,13.4-10.6C109.8,126.1,108.9,124.8,107.5,124.7z"/>
			</g>
			<path class="st13" d="M70.9,68.8c0,0,33.6,31.1,76.5,25.2c0,0,4.2-57.2-53-57.2c-57.2,0-49.2,47.7-49.2,47.7S55.8,82.3,70.9,68.8
				z"/>
			<polygon class="st8" points="72.4,63.3 62,39.8 51.3,54.7 51,54.2 32.6,52.6 43.6,75.8 54.2,60.6 			"/>
		</g>
	</g>
</g>
</svg>
