<?xml version="1.0" encoding="utf-8"?>
<!-- Generator: Adobe Illustrator 21.0.0, SVG Export Plug-In . SVG Version: 6.00 Build 0)  -->
<svg version="1.1" id="Layer_1" xmlns="http://www.w3.org/2000/svg" xmlns:xlink="http://www.w3.org/1999/xlink" x="0px" y="0px"
	 viewBox="0 0 504.1 504.1" style="enable-background:new 0 0 504.1 504.1;" xml:space="preserve">
<style type="text/css">
	.st0{fill:#B39EDC;}
	.st1{fill:#2B3B4E;}
	.st2{fill:#324A5E;}
	.st3{fill:#E6E9EE;}
	.st4{fill:#ACB3BA;}
	.st5{fill:#F5B947;}
	.st6{fill:#F3D479;}
</style>
<circle class="st0" cx="252.1" cy="252.1" r="252.1"/>
<polygon class="st1" points="94.5,363.5 94.5,382 102.4,393.8 401.7,393.8 409.6,382 409.6,363.5 "/>
<path class="st2" d="M378.9,345.4H125.2c-6.7,0-11.8-5.1-11.8-11.8V122.1c0-6.7,5.1-11.8,11.8-11.8h253.2c6.7,0,11.8,5.1,11.8,11.8
	v211.5C390.7,339.9,385.2,345.4,378.9,345.4z"/>
<rect x="133.1" y="130" class="st3" width="237.5" height="195.7"/>
<rect x="224.5" y="371" class="st4" width="55.1" height="7.9"/>
<circle class="st5" cx="211.1" cy="206.8" r="62.6"/>
<path class="st6" d="M211.1,260.7c-29.9,0-54-24-54-54s24-54,54-54s54,24.4,54,54S241,260.7,211.1,260.7z"/>
<path class="st5" d="M208.7,250.1v-7.9c-9.8-1.2-18.5-4.7-26.4-11.8l7.9-9.5c5.9,5.1,12.2,8.3,18.5,9.5v-20.9
	c-7.9-2-13.8-4.3-17.7-7.5c-3.5-3.2-5.5-7.9-5.5-13.8s2-11,6.3-15c4.3-3.9,9.8-5.9,16.9-6.3v-5.5h6.7v5.5c7.9,0.4,15.4,3.2,22.1,7.9
	l-7.1,9.8c-4.7-3.5-9.8-5.5-15.4-6.3v20.1h0.4c8.3,2,14.2,4.3,18.1,7.9c3.9,3.2,5.9,7.9,5.9,14.2s-2.4,11.4-6.7,15.4
	s-10.2,5.9-17.7,6.3v7.9L208.7,250.1L208.7,250.1z M201.3,180.8c-2,1.6-2.8,3.5-2.8,5.9s0.8,4.3,2,5.5c1.6,1.6,3.9,2.8,8.3,3.9
	v-18.5C205.6,178.4,203.2,179.2,201.3,180.8z M223.7,227.6c2-1.6,3.2-3.5,3.2-6.3c0-2.4-0.8-4.3-2.4-5.9c-1.6-1.6-4.3-2.8-8.7-3.9
	v19.3C219,230.4,221.7,229.6,223.7,227.6z"/>
<polygon class="st2" points="346.2,266.6 273.7,239.1 301.3,311.1 313.5,289.9 327.7,304.4 339.1,293 324.9,278.4 "/>
</svg>
